<?xml version="1.0" encoding="utf-8"?>
<!-- Generator: Adobe Illustrator 28.3.0, SVG Export Plug-In . SVG Version: 6.00 Build 0)  -->
<svg version="1.1" id="Layer_1" xmlns="http://www.w3.org/2000/svg" xmlns:xlink="http://www.w3.org/1999/xlink" x="0px" y="0px"
	 width="620px" height="250.3px" viewBox="0 0 620 250.3" enable-background="new 0 0 620 250.3" xml:space="preserve">
<g id="Layer_1_00000155835770550223673580000015882069669064631972_">
</g>
<g id="Layer_2_00000049919450752359308770000007039375532807292288_">
	<g id="RGB_1_">
		<g>
			<g>
				<g>
					<defs>
						<rect id="SVGID_1_" width="620" height="250.3"/>
					</defs>
					<clipPath id="SVGID_00000091014067653622696120000016226813858901720965_">
						<use xlink:href="#SVGID_1_"  overflow="visible"/>
					</clipPath>
					<g clip-path="url(#SVGID_00000091014067653622696120000016226813858901720965_)">
						<g>
							<g>
								<defs>
									<rect id="SVGID_00000142867233339545905330000012742638314632327811_" width="620" height="250.3"/>
								</defs>
								<clipPath id="SVGID_00000047773019620540908770000008308597785974400918_">
									<use xlink:href="#SVGID_00000142867233339545905330000012742638314632327811_"  overflow="visible"/>
								</clipPath>
								<path clip-path="url(#SVGID_00000047773019620540908770000008308597785974400918_)" fill="#00A6CA" d="M594,181.2
									c-16.4,23.2-43.6,38.5-74.2,38.5c-30.6,0-57.8-15.3-74.2-38.5L419,196.5c21.5,32.3,58.3,53.8,100.2,53.8
									s78.7-21.5,100.2-53.8L594,181.2z"/>
							</g>
						</g>
						<g>
							<g>
								<defs>
									<rect id="SVGID_00000026850576249177403960000015849272959407314575_" width="620" height="250.3"/>
								</defs>
								<clipPath id="SVGID_00000152263175544299056010000007692110439208874174_">
									<use xlink:href="#SVGID_00000026850576249177403960000015849272959407314575_"  overflow="visible"/>
								</clipPath>
								<path clip-path="url(#SVGID_00000152263175544299056010000007692110439208874174_)" fill="#24274D" d="M423,48.1v80.4
									c-5.1,6.8-15.3,14.2-26.6,14.2c-10.8,0-19.3-7.4-19.3-15.3V48.7h-24.9v78.7c0,18.7,10.8,35.7,40.8,35.7
									c14.2,0,25.5-7.9,30-12.5v10.2h24.3l0.6-112.7C447.9,48.1,423,48.1,423,48.1z"/>
							</g>
						</g>
						<g>
							<g>
								<defs>
									<rect id="SVGID_00000008827229084469372530000018342776509504063912_" width="620" height="250.3"/>
								</defs>
								<clipPath id="SVGID_00000106107190099628394940000000040304328816617138_">
									<use xlink:href="#SVGID_00000008827229084469372530000018342776509504063912_"  overflow="visible"/>
								</clipPath>
								<path clip-path="url(#SVGID_00000106107190099628394940000000040304328816617138_)" fill="#24274D" d="M318.2,164.7
									c-9.6-2.8-24.3-11.3-24.3-28.3V7.3l25.5-7.4v126.9c0,6.8,2.8,19.8,12.5,25.5L318.2,164.7z"/>
							</g>
						</g>
						<g>
							<g>
								<defs>
									<rect id="SVGID_00000100346945549216297330000001951303136389952152_" width="620" height="250.3"/>
								</defs>
								<clipPath id="SVGID_00000161632716762419023090000016899814045623021240_">
									<use xlink:href="#SVGID_00000100346945549216297330000001951303136389952152_"  overflow="visible"/>
								</clipPath>
								<polygon clip-path="url(#SVGID_00000161632716762419023090000016899814045623021240_)" fill="#24274D" points="104.7,165.3 
									55.5,48.1 82.1,48.1 109.3,113.8 137,48.1 163.1,48.1 114.4,165.3 								"/>
							</g>
						</g>
						<g>
							<g>
								<defs>
									<rect id="SVGID_00000127742125847687624260000006417975476231023515_" width="620" height="250.3"/>
								</defs>
								<clipPath id="SVGID_00000115509044772721869420000001260069402975670916_">
									<use xlink:href="#SVGID_00000127742125847687624260000006417975476231023515_"  overflow="visible"/>
								</clipPath>
								<path clip-path="url(#SVGID_00000115509044772721869420000001260069402975670916_)" fill="#24274D" d="M262.2,126.2v-47
									c0-16.4-15.9-34-40.2-34c-14.7,0-26.6,2.3-37.4,7.4l6.8,18.7c0,0,13-5.7,26-5.7c16.4,0,20.4,11.3,20.4,18.7v4.5
									c-2.8-0.6-7.9-1.7-11.9-1.7c-39.6,0-52.7,19.3-52.7,37.9c0,24.3,10.2,36.8,39.1,36.8c17,0,24.9-7.4,28.9-10.2
									c4,7.4,15.3,11.3,20.4,12.5l11.3-11.3C262.7,147.2,262.2,133,262.2,126.2 M215.7,143.2c-10.8,0-17.6-4-17.6-17.6
									s12.5-20.4,28.3-20.4c4,0,8.5,0,10.8,1.1v24.9C231,139.3,224.8,143.2,215.7,143.2"/>
							</g>
						</g>
						<g>
							<g>
								<defs>
									<rect id="SVGID_00000031887492006368212450000012678536981256919472_" width="620" height="250.3"/>
								</defs>
								<clipPath id="SVGID_00000160184697552940026370000012196989765052043659_">
									<use xlink:href="#SVGID_00000031887492006368212450000012678536981256919472_"  overflow="visible"/>
								</clipPath>
								<path clip-path="url(#SVGID_00000160184697552940026370000012196989765052043659_)" fill="#24274D" d="M559.4,126.2v-47
									c0-16.4-16.4-34-40.2-34c-14.7,0-26.6,2.3-37.4,7.4l6.8,18.7c0,0,13-5.7,26-5.7c16.4,0,20.4,11.3,20.4,18.7v4.5
									c-2.8-0.6-7.9-1.7-11.9-1.7c-39.6,0-52.7,19.3-52.7,37.9c0,24.3,10.2,36.8,39.1,36.8c17,0,24.9-7.4,28.9-10.2
									c4,7.4,15.3,11.3,20.4,12.5l11.3-11.3C560,147.2,559.4,133,559.4,126.2 M513,143.2c-10.8,0-17.6-4-17.6-17.6
									s12.5-20.4,28.3-20.4c4,0,8.5,0,10.8,1.1v24.9C528.3,139.3,522,143.2,513,143.2"/>
							</g>
						</g>
						<g>
							<g>
								<defs>
									<rect id="SVGID_00000085936026912690008350000006676861230135907987_" width="620" height="250.3"/>
								</defs>
								<clipPath id="SVGID_00000065769235783243530980000016362199757129758396_">
									<use xlink:href="#SVGID_00000085936026912690008350000006676861230135907987_"  overflow="visible"/>
								</clipPath>
								<polygon clip-path="url(#SVGID_00000065769235783243530980000016362199757129758396_)" fill="#24274D" points="13.6,160.8 
									39.1,160.8 39.1,48.1 0,48.1 0,68.5 13.6,68.5 								"/>
							</g>
						</g>
						<g>
							<g>
								<defs>
									<rect id="SVGID_00000121958141485426441910000006547245154357935267_" width="620" height="250.3"/>
								</defs>
								<clipPath id="SVGID_00000121989696271101217820000010659518216411923099_">
									<use xlink:href="#SVGID_00000121958141485426441910000006547245154357935267_"  overflow="visible"/>
								</clipPath>
								
									<rect y="9.6" clip-path="url(#SVGID_00000121989696271101217820000010659518216411923099_)" fill="#00A6CA" width="39.1" height="20.4"/>
							</g>
						</g>
					</g>
				</g>
			</g>
		</g>
	</g>
</g>
</svg>
